<svg xmlns="http://www.w3.org/2000/svg" xmlns:xlink="http://www.w3.org/1999/xlink" version="1.1" class="marks" width="742" height="515" viewBox="0 0 742 515"><g fill="none" stroke-miterlimit="10" transform="translate(0,15)"><g class="mark-group role-frame root" role="graphics-object" aria-roledescription="group mark container"><g transform="translate(0,0)"><path class="background" aria-hidden="true" d="M0,0h700v500h-700Z"/><g><g class="mark-path role-mark" role="graphics-symbol" aria-roledescription="path mark container" pointer-events="none"><path transform="translate(0,0)" d="M326.1549156088837,161.96142243407505L320.1922472264892,203.4540886726881" stroke="#00A7E1" stroke-width="0.8960389705985464" opacity="1"/><path transform="translate(0,0)" d="M337.4902829920704,394.2103658092815L426.9524956824807,203.3891124692125" stroke="#00A7E1" stroke-width="0.7461863178457252" opacity="0.7290730039024169"/><path transform="translate(0,0)" d="M337.4902829920704,394.2103658092815L397.07611387474367,129.02115397017317" stroke="#00A7E1" stroke-width="0.7423616802401647" opacity="0.7290730039024169"/><path transform="translate(0,0)" d="M337.4902829920704,394.2103658092815L344.0774594451115,306.88313212200757" stroke="#00A7E1" stroke-width="1.0404104510730394" opacity="0.7290730039024169"/><path transform="translate(0,0)" d="M337.4902829920704,394.2103658092815L413.2416944612877,445.1105802893554" stroke="#00A7E1" stroke-width="0.8468528578504937" opacity="0.1"/><path transform="translate(0,0)" d="M337.4902829920704,394.2103658092815L228.766484648159,401.87109583503565" stroke="#00A7E1" stroke-width="0.8279920043095237" opacity="0.7290730039024169"/><path transform="translate(0,0)" d="M337.4902829920704,394.2103658092815L344.32790630986153,332.560836316984" stroke="#00A7E1" stroke-width="0.637824482086907" opacity="0.7290730039024169"/><path transform="translate(0,0)" d="M337.4902829920704,394.2103658092815L377.75577962641376,454.3497586081442" stroke="#00A7E1" stroke-width="1.0446933737129265" opacity="0.1"/><path transform="translate(0,0)" d="M337.4902829920704,394.2103658092815L262.65816587338566,395.9387127626744" stroke="#00A7E1" stroke-width="0.7712645290666555" opacity="0.7290730039024169"/><path transform="translate(0,0)" d="M337.4902829920704,394.2103658092815L357.8535093050898,404.5587787042412" stroke="#00A7E1" stroke-width="0.7461696281578526" opacity="0.7290730039024169"/><path transform="translate(0,0)" d="M337.4902829920704,394.2103658092815L327.5975347003567,356.8861863370647" stroke="#F17720" stroke-width="0.9254919893258347" opacity="0.7290730039024169"/><path transform="translate(0,0)" d="M337.4902829920704,394.2103658092815L406.57194044089886,412.6527652470051" stroke="#F17720" stroke-width="1.1751824501037782" opacity="0.1"/><path transform="translate(0,0)" d="M337.4902829920704,394.2103658092815L314.7287767390125,437.38944331610355" stroke="#F17720" stroke-width="1.134679122189069" opacity="0.1"/><path transform="translate(0,0)" d="M337.4902829920704,394.2103658092815L337.21524647158975,443.00027501661305" stroke="#F17720" stroke-width="1.0722184095688578" opacity="0.1"/><path transform="translate(0,0)" d="M337.4902829920704,394.2103658092815L325.407772796018,442.7546343146831" stroke="#F17720" stroke-width="1.0152534474614079" opacity="0.1"/><path transform="translate(0,0)" d="M337.4902829920704,394.2103658092815L286.4491390482703,331.301943469062" stroke="#F17720" stroke-width="0.6510717368536467" opacity="0.7290730039024169"/><path transform="translate(0,0)" d="M337.4902829920704,394.2103658092815L319.7648785299651,337.63705045961393" stroke="#F17720" stroke-width="0.6808394625007654" opacity="0.7290730039024169"/><path transform="translate(0,0)" d="M361.4579082948326,35.62096727289741L397.07611387474367,129.02115397017317" stroke="#00A7E1" stroke-width="0.754688522450438" opacity="0.7290730039024169"/><path transform="translate(0,0)" d="M361.4579082948326,35.62096727289741L423.48939506857056,3.7833183677798443" stroke="#00A7E1" stroke-width="0.9773312741221062" opacity="0.1"/><path transform="translate(0,0)" d="M361.4579082948326,35.62096727289741L301.5903540783598,106.35550668991452" stroke="#00A7E1" stroke-width="0.6495839928118048" opacity="0.7290730039024169"/><path transform="translate(0,0)" d="M361.4579082948326,35.62096727289741L389.4062309339479,152.0997444460921" stroke="#00A7E1" stroke-width="0.9575702845507725" opacity="0.7290730039024169"/><path transform="translate(0,0)" d="M361.4579082948326,35.62096727289741L353.091255170738,89.3669805356877" stroke="#00A7E1" stroke-width="0.6865419511726145" opacity="0.7290730039024169"/><path transform="translate(0,0)" d="M361.4579082948326,35.62096727289741L354.9413688950373,-12.24202413903023" stroke="#00A7E1" stroke-width="0.8998461866632073" opacity="0.1"/><path transform="translate(0,0)" d="M361.4579082948326,35.62096727289741L301.02035340947657,147.6438750748792" stroke="#00A7E1" stroke-width="0.717073348484142" opacity="0.7290730039024169"/><path transform="translate(0,0)" d="M361.4579082948326,35.62096727289741L326.6300257154955,106.90943867857114" stroke="#00A7E1" stroke-width="0.7246271153966852" opacity="0.7290730039024169"/><path transform="translate(0,0)" d="M361.4579082948326,35.62096727289741L369.2314698483907,-11.696070489331072" stroke="#00A7E1" stroke-width="0.9531916561698837" opacity="0.1"/><path transform="translate(0,0)" d="M505.37968314456896,245.85517259021316L426.9524956824807,203.3891124692125" stroke="#00A7E1" stroke-width="0.820500479510317" opacity="0.7290730039024169"/><path transform="translate(0,0)" d="M505.37968314456896,245.85517259021316L464.8138186557903,381.80150990887836" stroke="#00A7E1" stroke-width="0.8867335035747279" opacity="0.1"/><path transform="translate(0,0)" d="M505.37968314456896,245.85517259021316L397.07611387474367,129.02115397017317" stroke="#00A7E1" stroke-width="0.7442760635817129" opacity="0.7290730039024169"/><path transform="translate(0,0)" d="M505.37968314456896,245.85517259021316L447.1523829100576,252.48727211442346" stroke="#F17720" stroke-width="0.6743018477813743" opacity="0.7290730039024169"/><path transform="translate(0,0)" d="M505.37968314456896,245.85517259021316L525.0256242782488,338.55843015140374" stroke="#00A7E1" stroke-width="0.8773121131670085" opacity="0.1"/><path transform="translate(0,0)" d="M505.37968314456896,245.85517259021316L389.4062309339479,152.0997444460921" stroke="#F17720" stroke-width="0.707989907514752" opacity="0.7290730039024169"/><path transform="translate(0,0)" d="M505.37968314456896,245.85517259021316L461.51661728309045,318.3181746654261" stroke="#00A7E1" stroke-width="1.0226815620427074" opacity="0.7290730039024169"/><path transform="translate(0,0)" d="M505.37968314456896,245.85517259021316L527.4092942209019,208.19312974739796" stroke="#00A7E1" stroke-width="0.77009992393713" opacity="0.7290730039024169"/><path transform="translate(0,0)" d="M505.37968314456896,245.85517259021316L554.0423237921832,238.55469227823352" stroke="#F17720" stroke-width="1.1111295196420583" opacity="0.1"/><path transform="translate(0,0)" d="M284.4041967017092,262.9642199153637L323.3309642198074,265.4945567543424" stroke="#00A7E1" stroke-width="0.8739379033658823" opacity="1"/><path transform="translate(0,0)" d="M284.4041967017092,262.9642199153637L272.6904984298655,141.21776445128194" stroke="#F17720" stroke-width="0.7018168344616575" opacity="1"/><path transform="translate(0,0)" d="M284.4041967017092,262.9642199153637L368.3924731048519,362.8758163103795" stroke="#F17720" stroke-width="0.7450220562257596" opacity="0.7290730039024169"/><path transform="translate(0,0)" d="M284.4041967017092,262.9642199153637L199.87003000808537,340.90540845282413" stroke="#F17720" stroke-width="0.7603847643344424" opacity="0.7290730039024169"/><path transform="translate(0,0)" d="M284.4041967017092,262.9642199153637L248.06693010328704,334.9988297946363" stroke="#F17720" stroke-width="1.083862613708924" opacity="0.7290730039024169"/><path transform="translate(0,0)" d="M284.4041967017092,262.9642199153637L330.9583104355673,288.3829807205671" stroke="#F17720" stroke-width="0.7441421582373517" opacity="0.7290730039024169"/><path transform="translate(0,0)" d="M284.4041967017092,262.9642199153637L219.54923728654032,231.18965995574408" stroke="#F17720" stroke-width="0.8670582900313172" opacity="0.7290730039024169"/><path transform="translate(0,0)" d="M284.4041967017092,262.9642199153637L344.32790630986153,332.560836316984" stroke="#F17720" stroke-width="0.6946958686652998" opacity="1"/><path transform="translate(0,0)" d="M284.4041967017092,262.9642199153637L301.22116525649767,305.5818773602577" stroke="#00A7E1" stroke-width="0.9163155124770148" opacity="0.7290730039024169"/><path transform="translate(0,0)" d="M284.4041967017092,262.9642199153637L301.5903540783598,106.35550668991452" stroke="#F17720" stroke-width="0.7406152351896498" opacity="1"/><path transform="translate(0,0)" d="M284.4041967017092,262.9642199153637L237.1864616289814,270.306072069249" stroke="#00A7E1" stroke-width="1.0479873031154856" opacity="0.7290730039024169"/><path transform="translate(0,0)" d="M284.4041967017092,262.9642199153637L267.25734697799084,346.7723140249178" stroke="#F17720" stroke-width="0.9759031181495921" opacity="0.7290730039024169"/><path transform="translate(0,0)" d="M284.4041967017092,262.9642199153637L368.27057253179544,259.94187871272015" stroke="#00A7E1" stroke-width="0.8203877903075576" opacity="0.7290730039024169"/><path transform="translate(0,0)" d="M284.4041967017092,262.9642199153637L389.4062309339479,152.0997444460921" stroke="#F17720" stroke-width="0.7393582461783954" opacity="0.7290730039024169"/><path transform="translate(0,0)" d="M284.4041967017092,262.9642199153637L334.0133918624018,197.4092447064591" stroke="#F17720" stroke-width="0.8971389464028254" opacity="0.7290730039024169"/><path transform="translate(0,0)" d="M284.4041967017092,262.9642199153637L327.5975347003567,356.8861863370647" stroke="#F17720" stroke-width="0.8563331111672725" opacity="0.7290730039024169"/><path transform="translate(0,0)" d="M284.4041967017092,262.9642199153637L271.0701511603468,322.9543391989054" stroke="#00A7E1" stroke-width="0.7365592601051263" opacity="0.7290730039024169"/><path transform="translate(0,0)" d="M284.4041967017092,262.9642199153637L301.02035340947657,147.6438750748792" stroke="#F17720" stroke-width="0.8925203160857363" opacity="1"/><path transform="translate(0,0)" d="M284.4041967017092,262.9642199153637L320.1922472264892,203.4540886726881" stroke="#F17720" stroke-width="0.7353770993892157" opacity="1"/><path transform="translate(0,0)" d="M384.35732098084105,217.09610335778527L369.5447194171239,181.84031720760842" stroke="#00A7E1" stroke-width="0.7556452045693656" opacity="0.7290730039024169"/><path transform="translate(0,0)" d="M384.35732098084105,217.09610335778527L453.84668424659,284.2643729244223" stroke="#00A7E1" stroke-width="0.8029513991626513" opacity="0.7290730039024169"/><path transform="translate(0,0)" d="M384.35732098084105,217.09610335778527L358.6971410729506,76.4178318211755" stroke="#00A7E1" stroke-width="0.9535774961714354" opacity="0.7290730039024169"/><path transform="translate(0,0)" d="M384.35732098084105,217.09610335778527L271.0701511603468,322.9543391989054" stroke="#00A7E1" stroke-width="0.830088946554518" opacity="0.7290730039024169"/><path transform="translate(0,0)" d="M516.5892831974606,314.4666971912694L467.4202614707688,300.1047846964363" stroke="#F17720" stroke-width="1.0089107193505527" opacity="0.1"/><path transform="translate(0,0)" d="M355.45016036289354,357.4234275821206L485.19256143151443,358.8193641919755" stroke="#00A7E1" stroke-width="0.8092548296848822" opacity="0.1"/><path transform="translate(0,0)" d="M355.45016036289354,357.4234275821206L262.91758851922384,295.4411150285832" stroke="#00A7E1" stroke-width="0.7980549128658316" opacity="0.1"/><path transform="translate(0,0)" d="M355.45016036289354,357.4234275821206L330.9583104355673,288.3829807205671" stroke="#00A7E1" stroke-width="0.7744406454129449" opacity="0.1"/><path transform="translate(0,0)" d="M355.45016036289354,357.4234275821206L357.8535093050898,404.5587787042412" stroke="#F17720" stroke-width="1.0936076747170291" opacity="0.1"/><path transform="translate(0,0)" d="M501.33295382876196,419.04351529004873L464.8138186557903,381.80150990887836" stroke="#00A7E1" stroke-width="1.0587855972409277" opacity="0.1"/><path transform="translate(0,0)" d="M424.28735656270635,494.5554524036232L413.2416944612877,445.1105802893554" stroke="#00A7E1" stroke-width="1.0423203808130257" opacity="0.1"/><path transform="translate(0,0)" d="M323.3309642198074,265.4945567543424L249.54070994574207,224.36380580222172" stroke="#00A7E1" stroke-width="0.847778952957836" opacity="1"/><path transform="translate(0,0)" d="M323.3309642198074,265.4945567543424L414.17103129907827,269.40145677282015" stroke="#00A7E1" stroke-width="1.0613809934957854" opacity="1"/><path transform="translate(0,0)" d="M323.3309642198074,265.4945567543424L368.3924731048519,362.8758163103795" stroke="#F17720" stroke-width="1.051025773346554" opacity="0.7290730039024169"/><path transform="translate(0,0)" d="M323.3309642198074,265.4945567543424L320.1922472264892,203.4540886726881" stroke="#F17720" stroke-width="1.03056910529177" opacity="1"/><path transform="translate(0,0)" d="M338.27427304894445,254.50576770423044L301.22116525649767,305.5818773602577" stroke="#00A7E1" stroke-width="0.8927625342489094" opacity="0.7290730039024169"/><path transform="translate(0,0)" d="M338.27427304894445,254.50576770423044L397.0829009578887,285.8658326288507" stroke="#00A7E1" stroke-width="1.0379620783693717" opacity="0.7290730039024169"/><path transform="translate(0,0)" d="M338.27427304894445,254.50576770423044L320.1922472264892,203.4540886726881" stroke="#F17720" stroke-width="1.0669536867734934" opacity="1"/><path transform="translate(0,0)" d="M485.19256143151443,358.8193641919755L464.8138186557903,381.80150990887836" stroke="#00A7E1" stroke-width="1.1810499493761806" opacity="0.1"/><path transform="translate(0,0)" d="M485.19256143151443,358.8193641919755L421.79731928385473,334.1544116196821" stroke="#00A7E1" stroke-width="1.0417141914757475" opacity="0.1"/><path transform="translate(0,0)" d="M485.19256143151443,358.8193641919755L525.0256242782488,338.55843015140374" stroke="#00A7E1" stroke-width="0.9977268558373381" opacity="0.1"/><path transform="translate(0,0)" d="M485.19256143151443,358.8193641919755L509.9333857010859,279.13710727435506" stroke="#F17720" stroke-width="0.9797827512212864" opacity="0.1"/><path transform="translate(0,0)" d="M145.64567214398238,146.8227400648248L191.15623278703836,172.26181941329656" stroke="#00A7E1" stroke-width="1.063012428235163" opacity="0.7290730039024169"/><path transform="translate(0,0)" d="M453.84668424659,284.2643729244223L426.9524956824807,203.3891124692125" stroke="#F17720" stroke-width="0.6708920432478038" opacity="0.7290730039024169"/><path transform="translate(0,0)" d="M453.84668424659,284.2643729244223L464.8138186557903,381.80150990887836" stroke="#F17720" stroke-width="0.7319712642747158" opacity="0.1"/><path transform="translate(0,0)" d="M453.84668424659,284.2643729244223L414.17103129907827,269.40145677282015" stroke="#00A7E1" stroke-width="0.8337369557521745" opacity="0.7290730039024169"/><path transform="translate(0,0)" d="M453.84668424659,284.2643729244223L344.0774594451115,306.88313212200757" stroke="#00A7E1" stroke-width="0.9506270160287005" opacity="0.7290730039024169"/><path transform="translate(0,0)" d="M453.84668424659,284.2643729244223L464.1971410337149,213.52454221437523" stroke="#00A7E1" stroke-width="0.706671441072285" opacity="0.7290730039024169"/><path transform="translate(0,0)" d="M453.84668424659,284.2643729244223L486.6016812027317,321.65647766192546" stroke="#F17720" stroke-width="0.9125581016082532" opacity="0.7290730039024169"/><path transform="translate(0,0)" d="M453.84668424659,284.2643729244223L344.32790630986153,332.560836316984" stroke="#F17720" stroke-width="0.6987798579642465" opacity="0.7290730039024169"/><path transform="translate(0,0)" d="M453.84668424659,284.2643729244223L509.9333857010859,279.13710727435506" stroke="#00A7E1" stroke-width="0.8594368680428002" opacity="0.7290730039024169"/><path transform="translate(0,0)" d="M453.84668424659,284.2643729244223L479.52481518091594,228.30486536292904" stroke="#00A7E1" stroke-width="0.9335049394601457" opacity="0.7290730039024169"/><path transform="translate(0,0)" d="M453.84668424659,284.2643729244223L496.05550958606,265.13922287335805" stroke="#F17720" stroke-width="0.9150401397323565" opacity="0.7290730039024169"/><path transform="translate(0,0)" d="M389.4062309339479,152.0997444460921L426.9524956824807,203.3891124692125" stroke="#F17720" stroke-width="0.830575743911863" opacity="0.7290730039024169"/><path transform="translate(0,0)" d="M389.4062309339479,152.0997444460921L410.1184667495807,130.67870840790206" stroke="#00A7E1" stroke-width="1.1058539687015285" opacity="0.7290730039024169"/><path transform="translate(0,0)" d="M389.4062309339479,152.0997444460921L272.6904984298655,141.21776445128194" stroke="#00A7E1" stroke-width="0.6881917509587887" opacity="0.7290730039024169"/><path transform="translate(0,0)" d="M389.4062309339479,152.0997444460921L397.07611387474367,129.02115397017317" stroke="#00A7E1" stroke-width="0.7476726030995997" opacity="0.7290730039024169"/><path transform="translate(0,0)" d="M389.4062309339479,152.0997444460921L442.2659197025321,139.0058994082901" stroke="#00A7E1" stroke-width="0.8793081086194361" opacity="0.7290730039024169"/><path transform="translate(0,0)" d="M469.5303151689707,9.614467708290897L442.23190750088514,55.669252061712996" stroke="#F17720" stroke-width="1.2057839746684735" opacity="0.1"/><path transform="translate(0,0)" d="M315.37752894575686,164.9398647610898L320.1922472264892,203.4540886726881" stroke="#00A7E1" stroke-width="1.0328497482019996" opacity="1"/><path transform="translate(0,0)" d="M295.29973691486884,291.61599116687563L344.32790630986153,332.560836316984" stroke="#F17720" stroke-width="0.83544311569848" opacity="1"/><path transform="translate(0,0)" d="M295.29973691486884,291.61599116687563L258.7684181551928,371.41446134717245" stroke="#00A7E1" stroke-width="0.8645575036911447" opacity="0.7290730039024169"/><path transform="translate(0,0)" d="M295.29973691486884,291.61599116687563L320.1922472264892,203.4540886726881" stroke="#F17720" stroke-width="0.9812164556479016" opacity="1"/><path transform="translate(0,0)" d="M258.7684181551928,371.41446134717245L228.766484648159,401.87109583503565" stroke="#F17720" stroke-width="0.9414001900489402" opacity="0.7290730039024169"/><path transform="translate(0,0)" d="M258.7684181551928,371.41446134717245L286.4491390482703,331.301943469062" stroke="#00A7E1" stroke-width="0.7950599964367882" opacity="0.7290730039024169"/><path transform="translate(0,0)" d="M258.7684181551928,371.41446134717245L319.7648785299651,337.63705045961393" stroke="#00A7E1" stroke-width="0.7325997265170567" opacity="0.7290730039024169"/><path transform="translate(0,0)" d="M356.3070358729514,125.99483093609332L426.9524956824807,203.3891124692125" stroke="#F17720" stroke-width="0.7084501228332716" opacity="0.7290730039024169"/><path transform="translate(0,0)" d="M356.3070358729514,125.99483093609332L272.6904984298655,141.21776445128194" stroke="#00A7E1" stroke-width="0.8736578557430967" opacity="0.7290730039024169"/><path transform="translate(0,0)" d="M356.3070358729514,125.99483093609332L261.2829772948715,124.82972761707873" stroke="#00A7E1" stroke-width="0.8209265062623612" opacity="0.7290730039024169"/><path transform="translate(0,0)" d="M356.3070358729514,125.99483093609332L430.45398533783646,128.59533563815424" stroke="#00A7E1" stroke-width="0.9536993640246487" opacity="0.7290730039024169"/><path transform="translate(0,0)" d="M322.7221679418661,407.44065244212896L372.3316190054944,427.0378824730864" stroke="#00A7E1" stroke-width="1.081459831691784" opacity="0.1"/><path transform="translate(0,0)" d="M322.7221679418661,407.44065244212896L319.7648785299651,337.63705045961393" stroke="#F17720" stroke-width="0.9693188920466107" opacity="0.1"/><path transform="translate(0,0)" d="M301.02035340947657,147.6438750748792L426.9524956824807,203.3891124692125" stroke="#F17720" stroke-width="0.7307923074297235" opacity="0.7290730039024169"/><path transform="translate(0,0)" d="M301.02035340947657,147.6438750748792L272.6904984298655,141.21776445128194" stroke="#00A7E1" stroke-width="0.7505069762613262" opacity="1"/><path transform="translate(0,0)" d="M301.02035340947657,147.6438750748792L219.54923728654032,231.18965995574408" stroke="#00A7E1" stroke-width="0.9008413800858613" opacity="0.7290730039024169"/><path transform="translate(0,0)" d="M301.02035340947657,147.6438750748792L261.2829772948715,124.82972761707873" stroke="#00A7E1" stroke-width="0.8263805221558463" opacity="0.7290730039024169"/><path transform="translate(0,0)" d="M301.02035340947657,147.6438750748792L320.1922472264892,203.4540886726881" stroke="#00A7E1" stroke-width="0.8423243927651138" opacity="1"/><path transform="translate(0,0)" d="M344.32790630986153,332.560836316984L301.22116525649767,305.5818773602577" stroke="#F17720" stroke-width="0.9397444883163246" opacity="0.7290730039024169"/><path transform="translate(0,0)" d="M344.32790630986153,332.560836316984L368.27057253179544,259.94187871272015" stroke="#F17720" stroke-width="0.7643306239823999" opacity="0.7290730039024169"/><path transform="translate(0,0)" d="M344.32790630986153,332.560836316984L262.65816587338566,395.9387127626744" stroke="#00A7E1" stroke-width="0.7121272306631263" opacity="0.7290730039024169"/><path transform="translate(0,0)" d="M344.32790630986153,332.560836316984L357.8535093050898,404.5587787042412" stroke="#00A7E1" stroke-width="0.9120204174670741" opacity="0.7290730039024169"/><path transform="translate(0,0)" d="M344.32790630986153,332.560836316984L467.4202614707688,300.1047846964363" stroke="#F17720" stroke-width="0.7420101619963639" opacity="0.7290730039024169"/><path transform="translate(0,0)" d="M344.32790630986153,332.560836316984L320.1922472264892,203.4540886726881" stroke="#00A7E1" stroke-width="0.6475383413473699" opacity="1"/><path transform="translate(0,0)" d="M344.32790630986153,332.560836316984L286.4491390482703,331.301943469062" stroke="#F17720" stroke-width="0.6257443792100431" opacity="1"/><path transform="translate(0,0)" d="M344.32790630986153,332.560836316984L319.7648785299651,337.63705045961393" stroke="#F17720" stroke-width="0.6850096178195757" opacity="0.7290730039024169"/><path transform="translate(0,0)" d="M336.0176738127366,167.0987882850075L320.1922472264892,203.4540886726881" stroke="#00A7E1" stroke-width="0.9138928015904235" opacity="1"/><path transform="translate(0,0)" d="M525.0256242782488,338.55843015140374L464.8138186557903,381.80150990887836" stroke="#00A7E1" stroke-width="0.8730148208607301" opacity="0.1"/><path transform="translate(0,0)" d="M326.6300257154955,106.90943867857114L388.9098080534051,95.11365451210098" stroke="#00A7E1" stroke-width="0.7537019553483433" opacity="1"/><path transform="translate(0,0)" d="M326.6300257154955,106.90943867857114L330.9583104355673,288.3829807205671" stroke="#00A7E1" stroke-width="0.9153858026356095" opacity="0.7290730039024169"/><path transform="translate(0,0)" d="M326.6300257154955,106.90943867857114L264.2878225533152,60.04527169714972" stroke="#00A7E1" stroke-width="0.9001623934463505" opacity="0.7290730039024169"/><path transform="translate(0,0)" d="M326.6300257154955,106.90943867857114L353.091255170738,89.3669805356877" stroke="#00A7E1" stroke-width="0.8187459993882161" opacity="1"/><path transform="translate(0,0)" d="M326.6300257154955,106.90943867857114L320.1922472264892,203.4540886726881" stroke="#00A7E1" stroke-width="0.8270300213722835" opacity="1"/><path transform="translate(0,0)" d="M297.6021254084308,78.71105381540671L272.6904984298655,141.21776445128194" stroke="#00A7E1" stroke-width="0.9540935215404386" opacity="0.7290730039024169"/><path transform="translate(0,0)" d="M297.6021254084308,78.71105381540671L353.091255170738,89.3669805356877" stroke="#00A7E1" stroke-width="0.9809143797130734" opacity="0.7290730039024169"/><path transform="translate(0,0)" d="M319.7648785299651,337.63705045961393L249.54070994574207,224.36380580222172" stroke="#00A7E1" stroke-width="0.7883066232486711" opacity="0.7290730039024169"/><path transform="translate(0,0)" d="M319.7648785299651,337.63705045961393L414.17103129907827,269.40145677282015" stroke="#00A7E1" stroke-width="0.7305750089134555" opacity="0.7290730039024169"/><path transform="translate(0,0)" d="M319.7648785299651,337.63705045961393L406.3115297447688,180.70075907756026" stroke="#00A7E1" stroke-width="0.7189944741954444" opacity="0.7290730039024169"/><path transform="translate(0,0)" d="M319.7648785299651,337.63705045961393L447.1523829100576,252.48727211442346" stroke="#00A7E1" stroke-width="0.7002983720626135" opacity="0.7290730039024169"/><path transform="translate(0,0)" d="M319.7648785299651,337.63705045961393L228.766484648159,401.87109583503565" stroke="#F17720" stroke-width="0.7036746175256559" opacity="0.7290730039024169"/><path transform="translate(0,0)" d="M319.7648785299651,337.63705045961393L271.0701511603468,322.9543391989054" stroke="#00A7E1" stroke-width="0.7326743957437484" opacity="0.7290730039024169"/><path transform="translate(0,0)" d="M414.17103129907827,269.40145677282015L369.5447194171239,181.84031720760842" stroke="#00A7E1" stroke-width="0.7347044589276654" opacity="1"/><path transform="translate(0,0)" d="M414.17103129907827,269.40145677282015L447.1523829100576,252.48727211442346" stroke="#00A7E1" stroke-width="0.704574216682007" opacity="1"/><path transform="translate(0,0)" d="M414.17103129907827,269.40145677282015L464.1971410337149,213.52454221437523" stroke="#00A7E1" stroke-width="0.8975861739047688" opacity="1"/><path transform="translate(0,0)" d="M414.17103129907827,269.40145677282015L509.9333857010859,279.13710727435506" stroke="#00A7E1" stroke-width="0.867498246032792" opacity="0.7290730039024169"/><path transform="translate(0,0)" d="M414.17103129907827,269.40145677282015L461.51661728309045,318.3181746654261" stroke="#F17720" stroke-width="1.1609380055926568" opacity="0.7290730039024169"/><path transform="translate(0,0)" d="M414.17103129907827,269.40145677282015L356.2908193410628,319.9578588443538" stroke="#F17720" stroke-width="0.9877140392983008" opacity="0.7290730039024169"/><path transform="translate(0,0)" d="M414.17103129907827,269.40145677282015L455.2776360461552,268.47575889412855" stroke="#00A7E1" stroke-width="0.9860762876593105" opacity="0.7290730039024169"/><path transform="translate(0,0)" d="M414.17103129907827,269.40145677282015L320.1922472264892,203.4540886726881" stroke="#F17720" stroke-width="0.7466416005749701" opacity="1"/><path transform="translate(0,0)" d="M171.60512845998883,193.8825998796451L225.6116560881118,202.15514262630577" stroke="#00A7E1" stroke-width="0.8472034467531128" opacity="0.7290730039024169"/><path transform="translate(0,0)" d="M479.52481518091594,228.30486536292904L426.9524956824807,203.3891124692125" stroke="#F17720" stroke-width="0.9170585458621217" opacity="0.7290730039024169"/><path transform="translate(0,0)" d="M479.52481518091594,228.30486536292904L447.1523829100576,252.48727211442346" stroke="#00A7E1" stroke-width="0.8150564334728196" opacity="0.7290730039024169"/><path transform="translate(0,0)" d="M286.4491390482703,331.301943469062L397.07611387474367,129.02115397017317" stroke="#F17720" stroke-width="0.738480324603106" opacity="1"/><path transform="translate(0,0)" d="M286.4491390482703,331.301943469062L447.1523829100576,252.48727211442346" stroke="#00A7E1" stroke-width="0.6661471172810562" opacity="1"/><path transform="translate(0,0)" d="M286.4491390482703,331.301943469062L368.3924731048519,362.8758163103795" stroke="#F17720" stroke-width="0.7244319197740872" opacity="0.7290730039024169"/><path transform="translate(0,0)" d="M286.4491390482703,331.301943469062L228.766484648159,401.87109583503565" stroke="#F17720" stroke-width="0.7412700558188134" opacity="0.7290730039024169"/><path transform="translate(0,0)" d="M286.4491390482703,331.301943469062L262.65816587338566,395.9387127626744" stroke="#F17720" stroke-width="0.7386501275561064" opacity="0.7290730039024169"/><path transform="translate(0,0)" d="M286.4491390482703,331.301943469062L261.12558733099405,252.68975192692517" stroke="#F17720" stroke-width="0.8439818355080417" opacity="1"/><path transform="translate(0,0)" d="M286.4491390482703,331.301943469062L210.94166191025369,378.6065896242944" stroke="#F17720" stroke-width="0.970157880974233" opacity="0.7290730039024169"/><path transform="translate(0,0)" d="M286.4491390482703,331.301943469062L230.95478918901563,333.6620535091085" stroke="#00A7E1" stroke-width="1.0361201218992604" opacity="0.7290730039024169"/><path transform="translate(0,0)" d="M286.4491390482703,331.301943469062L320.1922472264892,203.4540886726881" stroke="#F17720" stroke-width="0.6086044083926787" opacity="1"/><path transform="translate(0,0)" d="M464.8138186557903,381.80150990887836L426.9524956824807,203.3891124692125" stroke="#00A7E1" stroke-width="0.6519655980880343" opacity="0.1"/><path transform="translate(0,0)" d="M464.8138186557903,381.80150990887836L262.91758851922384,295.4411150285832" stroke="#00A7E1" stroke-width="0.8574006869969801" opacity="0.1"/><path transform="translate(0,0)" d="M464.8138186557903,381.80150990887836L413.2416944612877,445.1105802893554" stroke="#00A7E1" stroke-width="0.8592279469994293" opacity="0.1"/><path transform="translate(0,0)" d="M464.8138186557903,381.80150990887836L368.3924731048519,362.8758163103795" stroke="#00A7E1" stroke-width="0.7038241745754598" opacity="0.1"/><path transform="translate(0,0)" d="M464.8138186557903,381.80150990887836L486.6016812027317,321.65647766192546" stroke="#00A7E1" stroke-width="0.824096545574387" opacity="0.1"/><path transform="translate(0,0)" d="M464.8138186557903,381.80150990887836L500.6769519884468,408.70201496612873" stroke="#00A7E1" stroke-width="0.9838492656442883" opacity="0.1"/><path transform="translate(0,0)" d="M464.8138186557903,381.80150990887836L438.4788510777244,439.63866471552706" stroke="#00A7E1" stroke-width="0.9905288817057354" opacity="0.1"/><path transform="translate(0,0)" d="M464.8138186557903,381.80150990887836L490.1723847694291,420.46603837494285" stroke="#F17720" stroke-width="1.1046323424980307" opacity="0.1"/><path transform="translate(0,0)" d="M464.8138186557903,381.80150990887836L508.7166889742674,400.5273681011184" stroke="#00A7E1" stroke-width="0.8918563930099026" opacity="0.1"/><path transform="translate(0,0)" d="M464.8138186557903,381.80150990887836L406.57194044089886,412.6527652470051" stroke="#F17720" stroke-width="0.8960379411085073" opacity="0.1"/><path transform="translate(0,0)" d="M464.8138186557903,381.80150990887836L480.92011620478,426.4357934063517" stroke="#F17720" stroke-width="1.089482741992785" opacity="0.1"/><path transform="translate(0,0)" d="M191.15623278703836,172.26181941329656L219.54923728654032,231.18965995574408" stroke="#00A7E1" stroke-width="0.9572782820800859" opacity="0.7290730039024169"/><path transform="translate(0,0)" d="M191.15623278703836,172.26181941329656L140.15939529782628,160.52441978552707" stroke="#00A7E1" stroke-width="0.9693243177587157" opacity="0.7290730039024169"/><path transform="translate(0,0)" d="M191.15623278703836,172.26181941329656L320.1922472264892,203.4540886726881" stroke="#00A7E1" stroke-width="0.9277578268054816" opacity="1"/><path transform="translate(0,0)" d="M486.6016812027317,321.65647766192546L447.1523829100576,252.48727211442346" stroke="#F17720" stroke-width="0.85548179227747" opacity="0.7290730039024169"/><path transform="translate(0,0)" d="M490.9590635788568,241.18613232445244L447.1523829100576,252.48727211442346" stroke="#F17720" stroke-width="1.0815781188510751" opacity="0.7290730039024169"/><path transform="translate(0,0)" d="M410.1184667495807,130.67870840790206L369.5447194171239,181.84031720760842" stroke="#F17720" stroke-width="0.9498055825191634" opacity="0.7290730039024169"/><path transform="translate(0,0)" d="M423.0909215350692,89.93505354970804L397.07611387474367,129.02115397017317" stroke="#00A7E1" stroke-width="0.9657144072199431" opacity="0.7290730039024169"/><path transform="translate(0,0)" d="M327.5975347003567,356.8861863370647L403.1827384720202,381.2869069320044" stroke="#F17720" stroke-width="0.8243068570290617" opacity="0.7290730039024169"/><path transform="translate(0,0)" d="M267.25734697799084,346.7723140249178L228.766484648159,401.87109583503565" stroke="#00A7E1" stroke-width="1.1506915277321816" opacity="0.7290730039024169"/><path transform="translate(0,0)" d="M267.25734697799084,346.7723140249178L356.2908193410628,319.9578588443538" stroke="#00A7E1" stroke-width="0.9729144696553094" opacity="0.7290730039024169"/><path transform="translate(0,0)" d="M496.05550958606,265.13922287335805L447.1523829100576,252.48727211442346" stroke="#F17720" stroke-width="1.0809892213632588" opacity="0.7290730039024169"/><path transform="translate(0,0)" d="M421.79731928385473,334.1544116196821L364.7491531612477,226.49728653498997" stroke="#00A7E1" stroke-width="1.0806483240470528" opacity="0.7290730039024169"/><path transform="translate(0,0)" d="M421.79731928385473,334.1544116196821L368.3924731048519,362.8758163103795" stroke="#00A7E1" stroke-width="0.7969059970327717" opacity="0.7290730039024169"/><path transform="translate(0,0)" d="M397.0829009578887,285.8658326288507L447.1523829100576,252.48727211442346" stroke="#00A7E1" stroke-width="0.950532125172109" opacity="0.7290730039024169"/><path transform="translate(0,0)" d="M397.0829009578887,285.8658326288507L330.9583104355673,288.3829807205671" stroke="#F17720" stroke-width="1.185595695256992" opacity="0.7290730039024169"/><path transform="translate(0,0)" d="M397.0829009578887,285.8658326288507L388.924031959485,263.0365766475052" stroke="#00A7E1" stroke-width="1.0059574927107693" opacity="0.7290730039024169"/><path transform="translate(0,0)" d="M430.45398533783646,128.59533563815424L426.9524956824807,203.3891124692125" stroke="#F17720" stroke-width="0.7732275617424902" opacity="0.7290730039024169"/><path transform="translate(0,0)" d="M430.45398533783646,128.59533563815424L397.07611387474367,129.02115397017317" stroke="#00A7E1" stroke-width="1.2329821213625278" opacity="0.7290730039024169"/><path transform="translate(0,0)" d="M388.9098080534051,95.11365451210098L477.8273507373996,139.98019624874487" stroke="#F17720" stroke-width="0.7322861705624192" opacity="0.7290730039024169"/><path transform="translate(0,0)" d="M388.9098080534051,95.11365451210098L358.6971410729506,76.4178318211755" stroke="#00A7E1" stroke-width="0.7095747870391624" opacity="0.7290730039024169"/><path transform="translate(0,0)" d="M388.9098080534051,95.11365451210098L353.091255170738,89.3669805356877" stroke="#00A7E1" stroke-width="0.7170009063657541" opacity="1"/><path transform="translate(0,0)" d="M388.9098080534051,95.11365451210098L415.2730536064118,68.75564012047" stroke="#00A7E1" stroke-width="0.9236166411248161" opacity="0.7290730039024169"/><path transform="translate(0,0)" d="M388.9098080534051,95.11365451210098L320.1922472264892,203.4540886726881" stroke="#00A7E1" stroke-width="0.6826136402575476" opacity="1"/><path transform="translate(0,0)" d="M301.5903540783598,106.35550668991452L272.6904984298655,141.21776445128194" stroke="#00A7E1" stroke-width="0.7027112141299189" opacity="1"/><path transform="translate(0,0)" d="M301.5903540783598,106.35550668991452L406.3115297447688,180.70075907756026" stroke="#00A7E1" stroke-width="0.7022787076201292" opacity="0.7290730039024169"/><path transform="translate(0,0)" d="M301.5903540783598,106.35550668991452L312.2872443789238,138.0185782433838" stroke="#00A7E1" stroke-width="0.8207004944650288" opacity="1"/><path transform="translate(0,0)" d="M301.5903540783598,106.35550668991452L264.2878225533152,60.04527169714972" stroke="#00A7E1" stroke-width="0.8238334661620274" opacity="0.7290730039024169"/><path transform="translate(0,0)" d="M301.5903540783598,106.35550668991452L287.4818721281808,57.80025057561038" stroke="#00A7E1" stroke-width="0.8750311708620342" opacity="0.7290730039024169"/><path transform="translate(0,0)" d="M301.5903540783598,106.35550668991452L320.1922472264892,203.4540886726881" stroke="#00A7E1" stroke-width="0.6635086566334762" opacity="1"/><path transform="translate(0,0)" d="M386.7824407041085,332.88314507301385L363.7968052085402,297.9085461354204" stroke="#00A7E1" stroke-width="1.1366389127920389" opacity="0.7290730039024169"/><path transform="translate(0,0)" d="M262.91758851922384,295.4411150285832L272.6904984298655,141.21776445128194" stroke="#00A7E1" stroke-width="0.8167007509700698" opacity="0.7290730039024169"/><path transform="translate(0,0)" d="M262.91758851922384,295.4411150285832L233.83194521564891,171.40271621720188" stroke="#00A7E1" stroke-width="0.8892976868773244" opacity="0.1"/><path transform="translate(0,0)" d="M262.91758851922384,295.4411150285832L213.97669006544632,304.2784236249198" stroke="#00A7E1" stroke-width="1.0419455074516166" opacity="0.1"/><path transform="translate(0,0)" d="M262.91758851922384,295.4411150285832L219.54923728654032,231.18965995574408" stroke="#F17720" stroke-width="0.933093314951327" opacity="0.7290730039024169"/><path transform="translate(0,0)" d="M262.91758851922384,295.4411150285832L262.65816587338566,395.9387127626744" stroke="#00A7E1" stroke-width="0.7842026065158649" opacity="0.7290730039024169"/><path transform="translate(0,0)" d="M262.91758851922384,295.4411150285832L230.95478918901563,333.6620535091085" stroke="#F17720" stroke-width="0.9316942642515236" opacity="0.7290730039024169"/><path transform="translate(0,0)" d="M210.94166191025369,378.6065896242944L163.4951253638831,406.2384133820739" stroke="#00A7E1" stroke-width="1.1219502978968554" opacity="0.1"/><path transform="translate(0,0)" d="M444.826702061289,156.57201741501592L406.3115297447688,180.70075907756026" stroke="#00A7E1" stroke-width="1.0400243864123349" opacity="0.1"/><path transform="translate(0,0)" d="M426.9524956824807,203.3891124692125L406.3115297447688,180.70075907756026" stroke="#F17720" stroke-width="0.7168515704494344" opacity="0.7290730039024169"/><path transform="translate(0,0)" d="M426.9524956824807,203.3891124692125L364.7491531612477,226.49728653498997" stroke="#00A7E1" stroke-width="0.7352732773262869" opacity="0.7290730039024169"/><path transform="translate(0,0)" d="M426.9524956824807,203.3891124692125L464.1971410337149,213.52454221437523" stroke="#F17720" stroke-width="0.7317938527929245" opacity="0.7290730039024169"/><path transform="translate(0,0)" d="M426.9524956824807,203.3891124692125L388.924031959485,263.0365766475052" stroke="#F17720" stroke-width="0.803226192602017" opacity="0.7290730039024169"/><path transform="translate(0,0)" d="M426.9524956824807,203.3891124692125L334.0133918624018,197.4092447064591" stroke="#F17720" stroke-width="0.9018339631657272" opacity="0.7290730039024169"/><path transform="translate(0,0)" d="M426.9524956824807,203.3891124692125L442.2659197025321,139.0058994082901" stroke="#F17720" stroke-width="0.9498273289379048" opacity="0.7290730039024169"/><path transform="translate(0,0)" d="M426.9524956824807,203.3891124692125L467.4571093072661,181.37370991520265" stroke="#F17720" stroke-width="1.1238454049162903" opacity="0.1"/><path transform="translate(0,0)" d="M150.24099003912178,356.97762682710976L199.87003000808537,340.90540845282413" stroke="#00A7E1" stroke-width="1.0919251455751169" opacity="0.1"/><path transform="translate(0,0)" d="M225.01884613801275,85.65073726075715L261.2829772948715,124.82972761707873" stroke="#F17720" stroke-width="1.1430939699440994" opacity="0.1"/><path transform="translate(0,0)" d="M210.4340854898843,125.45580041997128L255.07291186464855,157.21293277152128" stroke="#00A7E1" stroke-width="1.204031651930294" opacity="0.1"/><path transform="translate(0,0)" d="M261.12558733099405,252.68975192692517L225.6116560881118,202.15514262630577" stroke="#00A7E1" stroke-width="1.25" opacity="1"/><path transform="translate(0,0)" d="M261.12558733099405,252.68975192692517L320.1922472264892,203.4540886726881" stroke="#00A7E1" stroke-width="0.9263178407026049" opacity="1"/><path transform="translate(0,0)" d="M423.0322907943292,422.6207701796591L403.1827384720202,381.2869069320044" stroke="#00A7E1" stroke-width="1.0491324501924457" opacity="0.1"/><path transform="translate(0,0)" d="M358.6971410729506,76.4178318211755L397.07611387474367,129.02115397017317" stroke="#00A7E1" stroke-width="0.9690010231308734" opacity="0.7290730039024169"/><path transform="translate(0,0)" d="M358.6971410729506,76.4178318211755L264.2878225533152,60.04527169714972" stroke="#00A7E1" stroke-width="0.741788698039398" opacity="0.7290730039024169"/><path transform="translate(0,0)" d="M295.39905830353706,170.88758982518993L320.1922472264892,203.4540886726881" stroke="#00A7E1" stroke-width="1.033719236040075" opacity="1"/><path transform="translate(0,0)" d="M415.2730536064118,68.75564012047L397.07611387474367,129.02115397017317" stroke="#00A7E1" stroke-width="0.8953477227548002" opacity="0.7290730039024169"/><path transform="translate(0,0)" d="M377.75577962641376,454.3497586081442L438.4788510777244,439.63866471552706" stroke="#00A7E1" stroke-width="1.0473379410177748" opacity="0.1"/><path transform="translate(0,0)" d="M432.434804086373,311.65247225820866L486.398555067002,285.63950932235537" stroke="#00A7E1" stroke-width="1.156310638028866" opacity="0.7290730039024169"/><path transform="translate(0,0)" d="M432.434804086373,311.65247225820866L363.7968052085402,297.9085461354204" stroke="#F17720" stroke-width="1.075737536195972" opacity="0.7290730039024169"/><path transform="translate(0,0)" d="M423.48939506857056,3.7833183677798443L484.48443776125134,53.61272590603908" stroke="#00A7E1" stroke-width="0.883634949631902" opacity="0.1"/><path transform="translate(0,0)" d="M286.896962666238,219.9319558260079L320.1922472264892,203.4540886726881" stroke="#00A7E1" stroke-width="1.0587921428319405" opacity="1"/><path transform="translate(0,0)" d="M406.3115297447688,180.70075907756026L369.5447194171239,181.84031720760842" stroke="#00A7E1" stroke-width="0.7922231880767105" opacity="0.7290730039024169"/><path transform="translate(0,0)" d="M406.3115297447688,180.70075907756026L509.9333857010859,279.13710727435506" stroke="#00A7E1" stroke-width="0.7781192659943367" opacity="0.7290730039024169"/><path transform="translate(0,0)" d="M406.3115297447688,180.70075907756026L353.091255170738,89.3669805356877" stroke="#00A7E1" stroke-width="0.8138985063733386" opacity="0.7290730039024169"/><path transform="translate(0,0)" d="M486.398555067002,285.63950932235537L447.1523829100576,252.48727211442346" stroke="#00A7E1" stroke-width="1.0015786175575876" opacity="0.7290730039024169"/><path transform="translate(0,0)" d="M258.24206346817357,194.8638221754532L249.54070994574207,224.36380580222172" stroke="#F17720" stroke-width="0.9715400371302039" opacity="1"/><path transform="translate(0,0)" d="M258.24206346817357,194.8638221754532L320.1922472264892,203.4540886726881" stroke="#00A7E1" stroke-width="0.9232057941221934" opacity="1"/><path transform="translate(0,0)" d="M334.0133918624018,197.4092447064591L261.2829772948715,124.82972761707873" stroke="#00A7E1" stroke-width="0.9698551506604504" opacity="0.7290730039024169"/><path transform="translate(0,0)" d="M330.9583104355673,288.3829807205671L403.1827384720202,381.2869069320044" stroke="#F17720" stroke-width="0.700878910294203" opacity="0.7290730039024169"/><path transform="translate(0,0)" d="M330.9583104355673,288.3829807205671L262.11070468635216,273.77349842845837" stroke="#F17720" stroke-width="0.8632260972952938" opacity="0.7290730039024169"/><path transform="translate(0,0)" d="M330.9583104355673,288.3829807205671L308.6597395102115,322.95779505470733" stroke="#00A7E1" stroke-width="1.0857113650111367" opacity="0.1"/><path transform="translate(0,0)" d="M344.0774594451115,306.88313212200757L249.54070994574207,224.36380580222172" stroke="#00A7E1" stroke-width="0.964940433305745" opacity="0.7290730039024169"/><path transform="translate(0,0)" d="M241.29630451001864,103.229288388701L272.6904984298655,141.21776445128194" stroke="#00A7E1" stroke-width="1.1293148008776233" opacity="0.7290730039024169"/><path transform="translate(0,0)" d="M368.27057253179544,259.94187871272015L369.5447194171239,181.84031720760842" stroke="#00A7E1" stroke-width="0.9759821135835056" opacity="0.7290730039024169"/><path transform="translate(0,0)" d="M368.27057253179544,259.94187871272015L447.1523829100576,252.48727211442346" stroke="#00A7E1" stroke-width="0.7854402928921427" opacity="0.7290730039024169"/><path transform="translate(0,0)" d="M368.27057253179544,259.94187871272015L405.0010003830945,245.96782538667668" stroke="#00A7E1" stroke-width="1.0366502951361347" opacity="0.1"/><path transform="translate(0,0)" d="M280.3822674815721,208.73538618778446L320.1922472264892,203.4540886726881" stroke="#00A7E1" stroke-width="1.011666850026224" opacity="1"/><path transform="translate(0,0)" d="M388.924031959485,263.0365766475052L403.1827384720202,381.2869069320044" stroke="#F17720" stroke-width="0.9946670633025041" opacity="0.7290730039024169"/><path transform="translate(0,0)" d="M388.924031959485,263.0365766475052L320.1922472264892,203.4540886726881" stroke="#F17720" stroke-width="0.8883592052553422" opacity="1"/><path transform="translate(0,0)" d="M199.87003000808537,340.90540845282413L228.766484648159,401.87109583503565" stroke="#00A7E1" stroke-width="0.8340062209942675" opacity="0.7290730039024169"/><path transform="translate(0,0)" d="M241.3913683368866,15.573430631741132L264.2878225533152,60.04527169714972" stroke="#00A7E1" stroke-width="1.0475978244767052" opacity="0.1"/><path transform="translate(0,0)" d="M403.1827384720202,381.2869069320044L413.2416944612877,445.1105802893554" stroke="#00A7E1" stroke-width="0.9389062605296146" opacity="0.1"/><path transform="translate(0,0)" d="M403.1827384720202,381.2869069320044L368.3924731048519,362.8758163103795" stroke="#F17720" stroke-width="0.940052041044992" opacity="0.7290730039024169"/><path transform="translate(0,0)" d="M403.1827384720202,381.2869069320044L461.51661728309045,318.3181746654261" stroke="#00A7E1" stroke-width="1.0470518895269474" opacity="0.7290730039024169"/><path transform="translate(0,0)" d="M403.1827384720202,381.2869069320044L438.4788510777244,439.63866471552706" stroke="#00A7E1" stroke-width="0.9360081289621929" opacity="0.1"/><path transform="translate(0,0)" d="M403.1827384720202,381.2869069320044L363.7968052085402,297.9085461354204" stroke="#00A7E1" stroke-width="0.7243247015719866" opacity="0.7290730039024169"/><path transform="translate(0,0)" d="M403.1827384720202,381.2869069320044L372.3316190054944,427.0378824730864" stroke="#F17720" stroke-width="1.0219694525297771" opacity="0.1"/><path transform="translate(0,0)" d="M198.9640814173484,222.63032441244187L249.54070994574207,224.36380580222172" stroke="#F17720" stroke-width="1.1787549336704422" opacity="0.7290730039024169"/><path transform="translate(0,0)" d="M509.9333857010859,279.13710727435506L447.1523829100576,252.48727211442346" stroke="#00A7E1" stroke-width="0.7490930351146474" opacity="0.7290730039024169"/><path transform="translate(0,0)" d="M509.9333857010859,279.13710727435506L559.069172587784,284.9711469560737" stroke="#00A7E1" stroke-width="1.2249436543889465" opacity="0.1"/><path transform="translate(0,0)" d="M509.9333857010859,279.13710727435506L467.4202614707688,300.1047846964363" stroke="#00A7E1" stroke-width="0.9760659683694755" opacity="0.7290730039024169"/><path transform="translate(0,0)" d="M233.83194521564891,171.40271621720188L264.2878225533152,60.04527169714972" stroke="#00A7E1" stroke-width="1.079222908691514" opacity="0.1"/><path transform="translate(0,0)" d="M272.6904984298655,141.21776445128194L249.54070994574207,224.36380580222172" stroke="#F17720" stroke-width="0.6954812832062962" opacity="1"/><path transform="translate(0,0)" d="M272.6904984298655,141.21776445128194L262.5138630392429,180.556530781193" stroke="#00A7E1" stroke-width="0.9725412218886774" opacity="0.7290730039024169"/><path transform="translate(0,0)" d="M272.6904984298655,141.21776445128194L320.1922472264892,203.4540886726881" stroke="#00A7E1" stroke-width="0.7065660586131361" opacity="1"/><path transform="translate(0,0)" d="M397.07611387474367,129.02115397017317L442.2659197025321,139.0058994082901" stroke="#00A7E1" stroke-width="0.9233909718588048" opacity="0.7290730039024169"/><path transform="translate(0,0)" d="M397.07611387474367,129.02115397017317L353.091255170738,89.3669805356877" stroke="#00A7E1" stroke-width="0.7879620005260615" opacity="1"/><path transform="translate(0,0)" d="M397.07611387474367,129.02115397017317L442.23190750088514,55.669252061712996" stroke="#00A7E1" stroke-width="0.865602456793655" opacity="0.7290730039024169"/><path transform="translate(0,0)" d="M397.07611387474367,129.02115397017317L320.1922472264892,203.4540886726881" stroke="#00A7E1" stroke-width="0.7065393796732217" opacity="1"/><path transform="translate(0,0)" d="M369.5447194171239,181.84031720760842L255.07291186464855,157.21293277152128" stroke="#F17720" stroke-width="0.8880992027986416" opacity="0.7290730039024169"/><path transform="translate(0,0)" d="M369.5447194171239,181.84031720760842L320.1922472264892,203.4540886726881" stroke="#F17720" stroke-width="0.7692157281561037" opacity="1"/><path transform="translate(0,0)" d="M190.5078768731429,432.27072781637895L228.766484648159,401.87109583503565" stroke="#00A7E1" stroke-width="1.0080475444617336" opacity="0.1"/><path transform="translate(0,0)" d="M527.4092942209019,208.19312974739796L464.1971410337149,213.52454221437523" stroke="#F17720" stroke-width="0.8074925599173863" opacity="0.7290730039024169"/><path transform="translate(0,0)" d="M477.8273507373996,139.98019624874487L447.1523829100576,252.48727211442346" stroke="#00A7E1" stroke-width="0.8271879739464015" opacity="0.7290730039024169"/><path transform="translate(0,0)" d="M477.8273507373996,139.98019624874487L464.1971410337149,213.52454221437523" stroke="#00A7E1" stroke-width="0.7784423857728728" opacity="0.7290730039024169"/><path transform="translate(0,0)" d="M477.8273507373996,139.98019624874487L484.48443776125134,53.61272590603908" stroke="#F17720" stroke-width="1.0234607934276836" opacity="0.1"/><path transform="translate(0,0)" d="M304.1443680039865,166.103448615821L320.1922472264892,203.4540886726881" stroke="#00A7E1" stroke-width="0.9858099368152969" opacity="1"/><path transform="translate(0,0)" d="M271.0701511603468,322.9543391989054L228.766484648159,401.87109583503565" stroke="#F17720" stroke-width="0.8416230674766687" opacity="0.7290730039024169"/><path transform="translate(0,0)" d="M283.9969134648878,186.19233170348056L320.1922472264892,203.4540886726881" stroke="#00A7E1" stroke-width="1.0146585898504317" opacity="1"/><path transform="translate(0,0)" d="M261.2829772948715,124.82972761707873L249.54070994574207,224.36380580222172" stroke="#F17720" stroke-width="0.7705443372307503" opacity="0.7290730039024169"/><path transform="translate(0,0)" d="M353.091255170738,89.3669805356877L320.1922472264892,203.4540886726881" stroke="#00A7E1" stroke-width="0.8066125828492671" opacity="1"/><path transform="translate(0,0)" d="M225.6116560881118,202.15514262630577L320.1922472264892,203.4540886726881" stroke="#00A7E1" stroke-width="0.7820740789750629" opacity="1"/><path transform="translate(0,0)" d="M219.54923728654032,231.18965995574408L262.11070468635216,273.77349842845837" stroke="#00A7E1" stroke-width="0.9821284003537377" opacity="0.7290730039024169"/><path transform="translate(0,0)" d="M345.64177552376896,175.10383245657775L320.1922472264892,203.4540886726881" stroke="#00A7E1" stroke-width="1.0010059768246409" opacity="1"/><path transform="translate(0,0)" d="M248.06693010328704,334.9988297946363L262.65816587338566,395.9387127626744" stroke="#00A7E1" stroke-width="1.1134197748771004" opacity="0.7290730039024169"/><path transform="translate(0,0)" d="M447.1523829100576,252.48727211442346L464.1971410337149,213.52454221437523" stroke="#00A7E1" stroke-width="0.7940904999678879" opacity="1"/><path transform="translate(0,0)" d="M447.1523829100576,252.48727211442346L320.1922472264892,203.4540886726881" stroke="#F17720" stroke-width="0.6873819139394417" opacity="1"/><path transform="translate(0,0)" d="M363.7968052085402,297.9085461354204L262.11070468635216,273.77349842845837" stroke="#00A7E1" stroke-width="0.9917352920275506" opacity="0.7290730039024169"/><path transform="translate(0,0)" d="M363.7968052085402,297.9085461354204L320.1922472264892,203.4540886726881" stroke="#00A7E1" stroke-width="0.7529714385537576" opacity="1"/><path transform="translate(0,0)" d="M228.766484648159,401.87109583503565L262.65816587338566,395.9387127626744" stroke="#00A7E1" stroke-width="0.7401715062225838" opacity="0.7290730039024169"/><path transform="translate(0,0)" d="M228.766484648159,401.87109583503565L200.88144259977932,441.6523510401123" stroke="#F17720" stroke-width="1.0559338476193316" opacity="0.1"/><path transform="translate(0,0)" d="M255.07291186464855,157.21293277152128L249.54070994574207,224.36380580222172" stroke="#F17720" stroke-width="1.0555054153933212" opacity="0.7290730039024169"/><path transform="translate(0,0)" d="M467.4202614707688,300.1047846964363L464.1971410337149,213.52454221437523" stroke="#00A7E1" stroke-width="0.771573008309943" opacity="0.7290730039024169"/><path transform="translate(0,0)" d="M372.3316190054944,427.0378824730864L368.3924731048519,362.8758163103795" stroke="#00A7E1" stroke-width="1.0644954205884032" opacity="0.1"/><path transform="translate(0,0)" d="M287.87075156642777,176.8245341544379L320.1922472264892,203.4540886726881" stroke="#00A7E1" stroke-width="1.0578300872344264" opacity="1"/><path transform="translate(0,0)" d="M262.11070468635216,273.77349842845837L249.54070994574207,224.36380580222172" stroke="#F17720" stroke-width="0.9107324286028338" opacity="0.7290730039024169"/><path transform="translate(0,0)" d="M238.27022066359368,438.2268180957272L262.65816587338566,395.9387127626744" stroke="#F17720" stroke-width="0.9834284803620151" opacity="0.1"/><path transform="translate(0,0)" d="M312.2872443789238,138.0185782433838L320.1922472264892,203.4540886726881" stroke="#00A7E1" stroke-width="0.752013086320459" opacity="1"/><path transform="translate(0,0)" d="M262.5138630392429,180.556530781193L249.54070994574207,224.36380580222172" stroke="#F17720" stroke-width="1.008084394486415" opacity="0.7290730039024169"/><path transform="translate(0,0)" d="M262.5138630392429,180.556530781193L364.7491531612477,226.49728653498997" stroke="#00A7E1" stroke-width="1.0761040092742498" opacity="0.7290730039024169"/><path transform="translate(0,0)" d="M364.7491531612477,226.49728653498997L320.1922472264892,203.4540886726881" stroke="#00A7E1" stroke-width="0.7290014182299405" opacity="1"/><path transform="translate(0,0)" d="M320.1922472264892,203.4540886726881L249.54070994574207,224.36380580222172" stroke="#F17720" stroke-width="0.8655193955354675" opacity="1"/><path transform="translate(0,0)" d="M320.1922472264892,203.4540886726881L464.1971410337149,213.52454221437523" stroke="#F17720" stroke-width="0.777842932957703" opacity="1"/><path transform="translate(0,0)" d="M320.1922472264892,203.4540886726881L282.6890334519159,197.228439885327" stroke="#F17720" stroke-width="0.9471068554195361" opacity="1"/></g><g class="mark-group role-legend" role="graphics-symbol" aria-roledescription="legend" aria-label="Symbol legend for fill color with 2 values: 0, 1"><g transform="translate(718,0)"><path class="background" aria-hidden="true" d="M0,0h24v26h-24Z" pointer-events="none"/><g><g class="mark-group role-legend-entry"><g transform="translate(0,0)"><path class="background" aria-hidden="true" d="M0,0h0v0h0Z" pointer-events="none"/><g><g class="mark-group role-scope" role="graphics-object" aria-roledescription="group mark container"><g transform="translate(0,0)"><path class="background" aria-hidden="true" d="M0,0h23.633333206176758v12h-23.633333206176758Z" pointer-events="none" opacity="1"/><g><g class="mark-symbol role-legend-symbol" pointer-events="none"><path transform="translate(6,6)" d="M5,0A5,5,0,1,1,-5,0A5,5,0,1,1,5,0" fill="rgb(156, 23, 158)" stroke-width="1.5" opacity="1"/></g><g class="mark-text role-legend-label" pointer-events="none"><text text-anchor="start" transform="translate(16,10)" font-family="sans-serif" font-size="12px" fill="#000" opacity="1">0</text></g></g><path class="foreground" aria-hidden="true" d="" pointer-events="none" display="none"/></g><g transform="translate(0,14)"><path class="background" aria-hidden="true" d="M0,0h23.633333206176758v12h-23.633333206176758Z" pointer-events="none" opacity="1"/><g><g class="mark-symbol role-legend-symbol" pointer-events="none"><path transform="translate(6,6)" d="M5,0A5,5,0,1,1,-5,0A5,5,0,1,1,5,0" fill="rgb(237, 121, 83)" stroke-width="1.5" opacity="1"/></g><g class="mark-text role-legend-label" pointer-events="none"><text text-anchor="start" transform="translate(16,10)" font-family="sans-serif" font-size="12px" fill="#000" opacity="1">1</text></g></g><path class="foreground" aria-hidden="true" d="" pointer-events="none" display="none"/></g></g></g><path class="foreground" aria-hidden="true" d="" pointer-events="none" display="none"/></g></g></g><path class="foreground" aria-hidden="true" d="" pointer-events="none" display="none"/></g></g><g class="mark-symbol role-mark nodes" role="graphics-symbol" aria-roledescription="symbol mark container"><path transform="translate(326.1549156088837,161.96142243407505)" d="M1.414,0A1.414,1.414,0,1,1,-1.414,0A1.414,1.414,0,1,1,1.414,0" fill="rgb(156, 23, 158)" opacity="1"/><path transform="translate(337.4902829920704,394.2103658092815)" d="M3.935,0A3.935,3.935,0,1,1,-3.935,0A3.935,3.935,0,1,1,3.935,0" fill="rgb(156, 23, 158)" opacity="0.7290730039024169"/><path transform="translate(361.4579082948326,35.62096727289741)" d="M2.123,0A2.123,2.123,0,1,1,-2.123,0A2.123,2.123,0,1,1,2.123,0" fill="rgb(156, 23, 158)" opacity="0.7290730039024169"/><path transform="translate(505.37968314456896,245.85517259021316)" d="M2.132,0A2.132,2.132,0,1,1,-2.132,0A2.132,2.132,0,1,1,2.132,0" fill="rgb(156, 23, 158)" opacity="0.7290730039024169"/><path transform="translate(284.4041967017092,262.9642199153637)" d="M4.378,0A4.378,4.378,0,1,1,-4.378,0A4.378,4.378,0,1,1,4.378,0" fill="rgb(156, 23, 158)" opacity="1"/><path transform="translate(384.35732098084105,217.09610335778527)" d="M1.425,0A1.425,1.425,0,1,1,-1.425,0A1.425,1.425,0,1,1,1.425,0" fill="rgb(156, 23, 158)" opacity="0.7290730039024169"/><path transform="translate(516.5892831974606,314.4666971912694)" d="M1.414,0A1.414,1.414,0,1,1,-1.414,0A1.414,1.414,0,1,1,1.414,0" fill="rgb(156, 23, 158)" opacity="0.1"/><path transform="translate(355.45016036289354,357.4234275821206)" d="M1.429,0A1.429,1.429,0,1,1,-1.429,0A1.429,1.429,0,1,1,1.429,0" fill="rgb(156, 23, 158)" opacity="0.1"/><path transform="translate(501.33295382876196,419.04351529004873)" d="M1.414,0A1.414,1.414,0,1,1,-1.414,0A1.414,1.414,0,1,1,1.414,0" fill="rgb(156, 23, 158)" opacity="0.1"/><path transform="translate(237.1864616289814,270.306072069249)" d="M1.414,0A1.414,1.414,0,1,1,-1.414,0A1.414,1.414,0,1,1,1.414,0" fill="rgb(156, 23, 158)" opacity="0.7290730039024169"/><path transform="translate(424.28735656270635,494.5554524036232)" d="M1.414,0A1.414,1.414,0,1,1,-1.414,0A1.414,1.414,0,1,1,1.414,0" fill="rgb(156, 23, 158)" opacity="0.1"/><path transform="translate(323.3309642198074,265.4945567543424)" d="M1.433,0A1.433,1.433,0,1,1,-1.433,0A1.433,1.433,0,1,1,1.433,0" fill="rgb(156, 23, 158)" opacity="1"/><path transform="translate(338.27427304894445,254.50576770423044)" d="M1.417,0A1.417,1.417,0,1,1,-1.417,0A1.417,1.417,0,1,1,1.417,0" fill="rgb(156, 23, 158)" opacity="1"/><path transform="translate(485.19256143151443,358.8193641919755)" d="M1.438,0A1.438,1.438,0,1,1,-1.438,0A1.438,1.438,0,1,1,1.438,0" fill="rgb(156, 23, 158)" opacity="0.1"/><path transform="translate(145.64567214398238,146.8227400648248)" d="M1.414,0A1.414,1.414,0,1,1,-1.414,0A1.414,1.414,0,1,1,1.414,0" fill="rgb(156, 23, 158)" opacity="0.7290730039024169"/><path transform="translate(453.84668424659,284.2643729244223)" d="M1.84,0A1.84,1.84,0,1,1,-1.84,0A1.84,1.84,0,1,1,1.84,0" fill="rgb(156, 23, 158)" opacity="0.7290730039024169"/><path transform="translate(389.4062309339479,152.0997444460921)" d="M1.657,0A1.657,1.657,0,1,1,-1.657,0A1.657,1.657,0,1,1,1.657,0" fill="rgb(156, 23, 158)" opacity="0.7290730039024169"/><path transform="translate(469.5303151689707,9.614467708290897)" d="M1.414,0A1.414,1.414,0,1,1,-1.414,0A1.414,1.414,0,1,1,1.414,0" fill="rgb(156, 23, 158)" opacity="0.1"/><path transform="translate(315.37752894575686,164.9398647610898)" d="M1.414,0A1.414,1.414,0,1,1,-1.414,0A1.414,1.414,0,1,1,1.414,0" fill="rgb(156, 23, 158)" opacity="1"/><path transform="translate(295.29973691486884,291.61599116687563)" d="M1.416,0A1.416,1.416,0,1,1,-1.416,0A1.416,1.416,0,1,1,1.416,0" fill="rgb(156, 23, 158)" opacity="1"/><path transform="translate(258.7684181551928,371.41446134717245)" d="M1.415,0A1.415,1.415,0,1,1,-1.415,0A1.415,1.415,0,1,1,1.415,0" fill="rgb(156, 23, 158)" opacity="0.7290730039024169"/><path transform="translate(356.3070358729514,125.99483093609332)" d="M1.422,0A1.422,1.422,0,1,1,-1.422,0A1.422,1.422,0,1,1,1.422,0" fill="rgb(156, 23, 158)" opacity="0.7290730039024169"/><path transform="translate(322.7221679418661,407.44065244212896)" d="M1.415,0A1.415,1.415,0,1,1,-1.415,0A1.415,1.415,0,1,1,1.415,0" fill="rgb(156, 23, 158)" opacity="0.1"/><path transform="translate(301.02035340947657,147.6438750748792)" d="M1.655,0A1.655,1.655,0,1,1,-1.655,0A1.655,1.655,0,1,1,1.655,0" fill="rgb(156, 23, 158)" opacity="1"/><path transform="translate(344.32790630986153,332.560836316984)" d="M2.386,0A2.386,2.386,0,1,1,-2.386,0A2.386,2.386,0,1,1,2.386,0" fill="rgb(156, 23, 158)" opacity="1"/><path transform="translate(336.0176738127366,167.0987882850075)" d="M1.414,0A1.414,1.414,0,1,1,-1.414,0A1.414,1.414,0,1,1,1.414,0" fill="rgb(156, 23, 158)" opacity="1"/><path transform="translate(525.0256242782488,338.55843015140374)" d="M1.414,0A1.414,1.414,0,1,1,-1.414,0A1.414,1.414,0,1,1,1.414,0" fill="rgb(156, 23, 158)" opacity="0.1"/><path transform="translate(326.6300257154955,106.90943867857114)" d="M1.573,0A1.573,1.573,0,1,1,-1.573,0A1.573,1.573,0,1,1,1.573,0" fill="rgb(156, 23, 158)" opacity="1"/><path transform="translate(297.6021254084308,78.71105381540671)" d="M1.414,0A1.414,1.414,0,1,1,-1.414,0A1.414,1.414,0,1,1,1.414,0" fill="rgb(156, 23, 158)" opacity="0.7290730039024169"/><path transform="translate(319.7648785299651,337.63705045961393)" d="M2.058,0A2.058,2.058,0,1,1,-2.058,0A2.058,2.058,0,1,1,2.058,0" fill="rgb(237, 121, 83)" opacity="0.7290730039024169"/><path transform="translate(414.17103129907827,269.40145677282015)" d="M2.115,0A2.115,2.115,0,1,1,-2.115,0A2.115,2.115,0,1,1,2.115,0" fill="rgb(156, 23, 158)" opacity="1"/><path transform="translate(171.60512845998883,193.8825998796451)" d="M1.414,0A1.414,1.414,0,1,1,-1.414,0A1.414,1.414,0,1,1,1.414,0" fill="rgb(156, 23, 158)" opacity="0.7290730039024169"/><path transform="translate(479.52481518091594,228.30486536292904)" d="M1.414,0A1.414,1.414,0,1,1,-1.414,0A1.414,1.414,0,1,1,1.414,0" fill="rgb(156, 23, 158)" opacity="0.7290730039024169"/><path transform="translate(286.4491390482703,331.301943469062)" d="M3.325,0A3.325,3.325,0,1,1,-3.325,0A3.325,3.325,0,1,1,3.325,0" fill="rgb(237, 121, 83)" opacity="1"/><path transform="translate(464.8138186557903,381.80150990887836)" d="M3.96,0A3.96,3.96,0,1,1,-3.96,0A3.96,3.96,0,1,1,3.96,0" fill="rgb(156, 23, 158)" opacity="0.1"/><path transform="translate(191.15623278703836,172.26181941329656)" d="M1.73,0A1.73,1.73,0,1,1,-1.73,0A1.73,1.73,0,1,1,1.73,0" fill="rgb(156, 23, 158)" opacity="1"/><path transform="translate(486.6016812027317,321.65647766192546)" d="M1.419,0A1.419,1.419,0,1,1,-1.419,0A1.419,1.419,0,1,1,1.419,0" fill="rgb(156, 23, 158)" opacity="0.7290730039024169"/><path transform="translate(490.9590635788568,241.18613232445244)" d="M1.414,0A1.414,1.414,0,1,1,-1.414,0A1.414,1.414,0,1,1,1.414,0" fill="rgb(156, 23, 158)" opacity="0.7290730039024169"/><path transform="translate(410.1184667495807,130.67870840790206)" d="M1.414,0A1.414,1.414,0,1,1,-1.414,0A1.414,1.414,0,1,1,1.414,0" fill="rgb(156, 23, 158)" opacity="0.7290730039024169"/><path transform="translate(423.0909215350692,89.93505354970804)" d="M1.414,0A1.414,1.414,0,1,1,-1.414,0A1.414,1.414,0,1,1,1.414,0" fill="rgb(156, 23, 158)" opacity="0.7290730039024169"/><path transform="translate(327.5975347003567,356.8861863370647)" d="M1.423,0A1.423,1.423,0,1,1,-1.423,0A1.423,1.423,0,1,1,1.423,0" fill="rgb(156, 23, 158)" opacity="0.7290730039024169"/><path transform="translate(267.25734697799084,346.7723140249178)" d="M1.422,0A1.422,1.422,0,1,1,-1.422,0A1.422,1.422,0,1,1,1.422,0" fill="rgb(156, 23, 158)" opacity="0.7290730039024169"/><path transform="translate(496.05550958606,265.13922287335805)" d="M1.414,0A1.414,1.414,0,1,1,-1.414,0A1.414,1.414,0,1,1,1.414,0" fill="rgb(156, 23, 158)" opacity="0.7290730039024169"/><path transform="translate(421.79731928385473,334.1544116196821)" d="M1.416,0A1.416,1.416,0,1,1,-1.416,0A1.416,1.416,0,1,1,1.416,0" fill="rgb(156, 23, 158)" opacity="0.7290730039024169"/><path transform="translate(397.0829009578887,285.8658326288507)" d="M1.423,0A1.423,1.423,0,1,1,-1.423,0A1.423,1.423,0,1,1,1.423,0" fill="rgb(156, 23, 158)" opacity="0.7290730039024169"/><path transform="translate(430.45398533783646,128.59533563815424)" d="M1.415,0A1.415,1.415,0,1,1,-1.415,0A1.415,1.415,0,1,1,1.415,0" fill="rgb(156, 23, 158)" opacity="0.7290730039024169"/><path transform="translate(388.9098080534051,95.11365451210098)" d="M1.466,0A1.466,1.466,0,1,1,-1.466,0A1.466,1.466,0,1,1,1.466,0" fill="rgb(156, 23, 158)" opacity="1"/><path transform="translate(301.5903540783598,106.35550668991452)" d="M1.981,0A1.981,1.981,0,1,1,-1.981,0A1.981,1.981,0,1,1,1.981,0" fill="rgb(156, 23, 158)" opacity="1"/><path transform="translate(386.7824407041085,332.88314507301385)" d="M1.414,0A1.414,1.414,0,1,1,-1.414,0A1.414,1.414,0,1,1,1.414,0" fill="rgb(156, 23, 158)" opacity="0.7290730039024169"/><path transform="translate(262.91758851922384,295.4411150285832)" d="M2.181,0A2.181,2.181,0,1,1,-2.181,0A2.181,2.181,0,1,1,2.181,0" fill="rgb(156, 23, 158)" opacity="0.7290730039024169"/><path transform="translate(210.94166191025369,378.6065896242944)" d="M1.494,0A1.494,1.494,0,1,1,-1.494,0A1.494,1.494,0,1,1,1.494,0" fill="rgb(156, 23, 158)" opacity="0.7290730039024169"/><path transform="translate(213.97669006544632,304.2784236249198)" d="M1.414,0A1.414,1.414,0,1,1,-1.414,0A1.414,1.414,0,1,1,1.414,0" fill="rgb(156, 23, 158)" opacity="0.1"/><path transform="translate(444.826702061289,156.57201741501592)" d="M1.414,0A1.414,1.414,0,1,1,-1.414,0A1.414,1.414,0,1,1,1.414,0" fill="rgb(156, 23, 158)" opacity="0.1"/><path transform="translate(230.95478918901563,333.6620535091085)" d="M1.415,0A1.415,1.415,0,1,1,-1.415,0A1.415,1.415,0,1,1,1.415,0" fill="rgb(156, 23, 158)" opacity="0.7290730039024169"/><path transform="translate(426.9524956824807,203.3891124692125)" d="M3.07,0A3.07,3.07,0,1,1,-3.07,0A3.07,3.07,0,1,1,3.07,0" fill="rgb(156, 23, 158)" opacity="0.7290730039024169"/><path transform="translate(406.57194044089886,412.6527652470051)" d="M1.415,0A1.415,1.415,0,1,1,-1.415,0A1.415,1.415,0,1,1,1.415,0" fill="rgb(156, 23, 158)" opacity="0.1"/><path transform="translate(150.24099003912178,356.97762682710976)" d="M1.414,0A1.414,1.414,0,1,1,-1.414,0A1.414,1.414,0,1,1,1.414,0" fill="rgb(156, 23, 158)" opacity="0.1"/><path transform="translate(225.01884613801275,85.65073726075715)" d="M1.414,0A1.414,1.414,0,1,1,-1.414,0A1.414,1.414,0,1,1,1.414,0" fill="rgb(156, 23, 158)" opacity="0.1"/><path transform="translate(210.4340854898843,125.45580041997128)" d="M1.414,0A1.414,1.414,0,1,1,-1.414,0A1.414,1.414,0,1,1,1.414,0" fill="rgb(156, 23, 158)" opacity="0.1"/><path transform="translate(261.12558733099405,252.68975192692517)" d="M1.415,0A1.415,1.415,0,1,1,-1.415,0A1.415,1.415,0,1,1,1.415,0" fill="rgb(156, 23, 158)" opacity="1"/><path transform="translate(354.9413688950373,-12.24202413903023)" d="M1.414,0A1.414,1.414,0,1,1,-1.414,0A1.414,1.414,0,1,1,1.414,0" fill="rgb(156, 23, 158)" opacity="0.1"/><path transform="translate(423.0322907943292,422.6207701796591)" d="M1.414,0A1.414,1.414,0,1,1,-1.414,0A1.414,1.414,0,1,1,1.414,0" fill="rgb(156, 23, 158)" opacity="0.1"/><path transform="translate(358.6971410729506,76.4178318211755)" d="M1.439,0A1.439,1.439,0,1,1,-1.439,0A1.439,1.439,0,1,1,1.439,0" fill="rgb(156, 23, 158)" opacity="0.7290730039024169"/><path transform="translate(295.39905830353706,170.88758982518993)" d="M1.414,0A1.414,1.414,0,1,1,-1.414,0A1.414,1.414,0,1,1,1.414,0" fill="rgb(156, 23, 158)" opacity="1"/><path transform="translate(467.4571093072661,181.37370991520265)" d="M1.414,0A1.414,1.414,0,1,1,-1.414,0A1.414,1.414,0,1,1,1.414,0" fill="rgb(156, 23, 158)" opacity="0.1"/><path transform="translate(415.2730536064118,68.75564012047)" d="M1.414,0A1.414,1.414,0,1,1,-1.414,0A1.414,1.414,0,1,1,1.414,0" fill="rgb(156, 23, 158)" opacity="0.7290730039024169"/><path transform="translate(357.8535093050898,404.5587787042412)" d="M1.418,0A1.418,1.418,0,1,1,-1.418,0A1.418,1.418,0,1,1,1.418,0" fill="rgb(156, 23, 158)" opacity="0.7290730039024169"/><path transform="translate(301.22116525649767,305.5818773602577)" d="M1.415,0A1.415,1.415,0,1,1,-1.415,0A1.415,1.415,0,1,1,1.415,0" fill="rgb(156, 23, 158)" opacity="0.7290730039024169"/><path transform="translate(377.75577962641376,454.3497586081442)" d="M1.416,0A1.416,1.416,0,1,1,-1.416,0A1.416,1.416,0,1,1,1.416,0" fill="rgb(156, 23, 158)" opacity="0.1"/><path transform="translate(432.434804086373,311.65247225820866)" d="M1.414,0A1.414,1.414,0,1,1,-1.414,0A1.414,1.414,0,1,1,1.414,0" fill="rgb(156, 23, 158)" opacity="0.7290730039024169"/><path transform="translate(423.48939506857056,3.7833183677798443)" d="M1.417,0A1.417,1.417,0,1,1,-1.417,0A1.417,1.417,0,1,1,1.417,0" fill="rgb(156, 23, 158)" opacity="0.1"/><path transform="translate(286.896962666238,219.9319558260079)" d="M1.414,0A1.414,1.414,0,1,1,-1.414,0A1.414,1.414,0,1,1,1.414,0" fill="rgb(156, 23, 158)" opacity="1"/><path transform="translate(406.3115297447688,180.70075907756026)" d="M1.72,0A1.72,1.72,0,1,1,-1.72,0A1.72,1.72,0,1,1,1.72,0" fill="rgb(156, 23, 158)" opacity="0.7290730039024169"/><path transform="translate(486.398555067002,285.63950932235537)" d="M1.419,0A1.419,1.419,0,1,1,-1.419,0A1.419,1.419,0,1,1,1.419,0" fill="rgb(156, 23, 158)" opacity="0.7290730039024169"/><path transform="translate(258.24206346817357,194.8638221754532)" d="M1.414,0A1.414,1.414,0,1,1,-1.414,0A1.414,1.414,0,1,1,1.414,0" fill="rgb(156, 23, 158)" opacity="1"/><path transform="translate(334.0133918624018,197.4092447064591)" d="M1.422,0A1.422,1.422,0,1,1,-1.422,0A1.422,1.422,0,1,1,1.422,0" fill="rgb(156, 23, 158)" opacity="0.7290730039024169"/><path transform="translate(330.9583104355673,288.3829807205671)" d="M1.759,0A1.759,1.759,0,1,1,-1.759,0A1.759,1.759,0,1,1,1.759,0" fill="rgb(156, 23, 158)" opacity="0.7290730039024169"/><path transform="translate(344.0774594451115,306.88313212200757)" d="M1.426,0A1.426,1.426,0,1,1,-1.426,0A1.426,1.426,0,1,1,1.426,0" fill="rgb(156, 23, 158)" opacity="0.7290730039024169"/><path transform="translate(241.29630451001864,103.229288388701)" d="M1.414,0A1.414,1.414,0,1,1,-1.414,0A1.414,1.414,0,1,1,1.414,0" fill="rgb(156, 23, 158)" opacity="0.7290730039024169"/><path transform="translate(368.27057253179544,259.94187871272015)" d="M1.541,0A1.541,1.541,0,1,1,-1.541,0A1.541,1.541,0,1,1,1.541,0" fill="rgb(156, 23, 158)" opacity="0.7290730039024169"/><path transform="translate(280.3822674815721,208.73538618778446)" d="M1.414,0A1.414,1.414,0,1,1,-1.414,0A1.414,1.414,0,1,1,1.414,0" fill="rgb(156, 23, 158)" opacity="1"/><path transform="translate(388.924031959485,263.0365766475052)" d="M1.485,0A1.485,1.485,0,1,1,-1.485,0A1.485,1.485,0,1,1,1.485,0" fill="rgb(156, 23, 158)" opacity="1"/><path transform="translate(490.1723847694291,420.46603837494285)" d="M1.414,0A1.414,1.414,0,1,1,-1.414,0A1.414,1.414,0,1,1,1.414,0" fill="rgb(156, 23, 158)" opacity="0.1"/><path transform="translate(199.87003000808537,340.90540845282413)" d="M1.507,0A1.507,1.507,0,1,1,-1.507,0A1.507,1.507,0,1,1,1.507,0" fill="rgb(156, 23, 158)" opacity="0.7290730039024169"/><path transform="translate(241.3913683368866,15.573430631741132)" d="M1.414,0A1.414,1.414,0,1,1,-1.414,0A1.414,1.414,0,1,1,1.414,0" fill="rgb(156, 23, 158)" opacity="0.1"/><path transform="translate(403.1827384720202,381.2869069320044)" d="M1.909,0A1.909,1.909,0,1,1,-1.909,0A1.909,1.909,0,1,1,1.909,0" fill="rgb(156, 23, 158)" opacity="0.7290730039024169"/><path transform="translate(198.9640814173484,222.63032441244187)" d="M1.414,0A1.414,1.414,0,1,1,-1.414,0A1.414,1.414,0,1,1,1.414,0" fill="rgb(156, 23, 158)" opacity="0.7290730039024169"/><path transform="translate(438.4788510777244,439.63866471552706)" d="M1.421,0A1.421,1.421,0,1,1,-1.421,0A1.421,1.421,0,1,1,1.421,0" fill="rgb(156, 23, 158)" opacity="0.1"/><path transform="translate(140.15939529782628,160.52441978552707)" d="M1.414,0A1.414,1.414,0,1,1,-1.414,0A1.414,1.414,0,1,1,1.414,0" fill="rgb(156, 23, 158)" opacity="0.7290730039024169"/><path transform="translate(509.9333857010859,279.13710727435506)" d="M1.652,0A1.652,1.652,0,1,1,-1.652,0A1.652,1.652,0,1,1,1.652,0" fill="rgb(156, 23, 158)" opacity="0.7290730039024169"/><path transform="translate(233.83194521564891,171.40271621720188)" d="M1.419,0A1.419,1.419,0,1,1,-1.419,0A1.419,1.419,0,1,1,1.419,0" fill="rgb(156, 23, 158)" opacity="0.1"/><path transform="translate(272.6904984298655,141.21776445128194)" d="M2.335,0A2.335,2.335,0,1,1,-2.335,0A2.335,2.335,0,1,1,2.335,0" fill="rgb(156, 23, 158)" opacity="1"/><path transform="translate(405.0010003830945,245.96782538667668)" d="M1.414,0A1.414,1.414,0,1,1,-1.414,0A1.414,1.414,0,1,1,1.414,0" fill="rgb(156, 23, 158)" opacity="0.1"/><path transform="translate(397.07611387474367,129.02115397017317)" d="M3.904,0A3.904,3.904,0,1,1,-3.904,0A3.904,3.904,0,1,1,3.904,0" fill="rgb(156, 23, 158)" opacity="1"/><path transform="translate(369.5447194171239,181.84031720760842)" d="M1.675,0A1.675,1.675,0,1,1,-1.675,0A1.675,1.675,0,1,1,1.675,0" fill="rgb(156, 23, 158)" opacity="1"/><path transform="translate(500.6769519884468,408.70201496612873)" d="M1.414,0A1.414,1.414,0,1,1,-1.414,0A1.414,1.414,0,1,1,1.414,0" fill="rgb(156, 23, 158)" opacity="0.1"/><path transform="translate(314.7287767390125,437.38944331610355)" d="M1.414,0A1.414,1.414,0,1,1,-1.414,0A1.414,1.414,0,1,1,1.414,0" fill="rgb(156, 23, 158)" opacity="0.1"/><path transform="translate(190.5078768731429,432.27072781637895)" d="M1.414,0A1.414,1.414,0,1,1,-1.414,0A1.414,1.414,0,1,1,1.414,0" fill="rgb(156, 23, 158)" opacity="0.1"/><path transform="translate(264.2878225533152,60.04527169714972)" d="M1.565,0A1.565,1.565,0,1,1,-1.565,0A1.565,1.565,0,1,1,1.565,0" fill="rgb(156, 23, 158)" opacity="0.7290730039024169"/><path transform="translate(442.23190750088514,55.669252061712996)" d="M1.494,0A1.494,1.494,0,1,1,-1.494,0A1.494,1.494,0,1,1,1.494,0" fill="rgb(156, 23, 158)" opacity="0.7290730039024169"/><path transform="translate(527.4092942209019,208.19312974739796)" d="M1.414,0A1.414,1.414,0,1,1,-1.414,0A1.414,1.414,0,1,1,1.414,0" fill="rgb(156, 23, 158)" opacity="0.7290730039024169"/><path transform="translate(477.8273507373996,139.98019624874487)" d="M1.489,0A1.489,1.489,0,1,1,-1.489,0A1.489,1.489,0,1,1,1.489,0" fill="rgb(156, 23, 158)" opacity="0.7290730039024169"/><path transform="translate(304.1443680039865,166.103448615821)" d="M1.414,0A1.414,1.414,0,1,1,-1.414,0A1.414,1.414,0,1,1,1.414,0" fill="rgb(156, 23, 158)" opacity="1"/><path transform="translate(480.92011620478,426.4357934063517)" d="M1.414,0A1.414,1.414,0,1,1,-1.414,0A1.414,1.414,0,1,1,1.414,0" fill="rgb(156, 23, 158)" opacity="0.1"/><path transform="translate(271.0701511603468,322.9543391989054)" d="M1.424,0A1.424,1.424,0,1,1,-1.424,0A1.424,1.424,0,1,1,1.424,0" fill="rgb(156, 23, 158)" opacity="0.7290730039024169"/><path transform="translate(484.48443776125134,53.61272590603908)" d="M1.415,0A1.415,1.415,0,1,1,-1.415,0A1.415,1.415,0,1,1,1.415,0" fill="rgb(156, 23, 158)" opacity="0.1"/><path transform="translate(283.9969134648878,186.19233170348056)" d="M1.414,0A1.414,1.414,0,1,1,-1.414,0A1.414,1.414,0,1,1,1.414,0" fill="rgb(156, 23, 158)" opacity="1"/><path transform="translate(442.2659197025321,139.0058994082901)" d="M1.414,0A1.414,1.414,0,1,1,-1.414,0A1.414,1.414,0,1,1,1.414,0" fill="rgb(156, 23, 158)" opacity="0.7290730039024169"/><path transform="translate(356.2908193410628,319.9578588443538)" d="M1.415,0A1.415,1.415,0,1,1,-1.415,0A1.415,1.415,0,1,1,1.415,0" fill="rgb(156, 23, 158)" opacity="0.7290730039024169"/><path transform="translate(261.2829772948715,124.82972761707873)" d="M1.513,0A1.513,1.513,0,1,1,-1.513,0A1.513,1.513,0,1,1,1.513,0" fill="rgb(156, 23, 158)" opacity="0.7290730039024169"/><path transform="translate(353.091255170738,89.3669805356877)" d="M1.501,0A1.501,1.501,0,1,1,-1.501,0A1.501,1.501,0,1,1,1.501,0" fill="rgb(156, 23, 158)" opacity="1"/><path transform="translate(455.2776360461552,268.47575889412855)" d="M1.414,0A1.414,1.414,0,1,1,-1.414,0A1.414,1.414,0,1,1,1.414,0" fill="rgb(156, 23, 158)" opacity="0.7290730039024169"/><path transform="translate(225.6116560881118,202.15514262630577)" d="M1.494,0A1.494,1.494,0,1,1,-1.494,0A1.494,1.494,0,1,1,1.494,0" fill="rgb(156, 23, 158)" opacity="1"/><path transform="translate(219.54923728654032,231.18965995574408)" d="M1.468,0A1.468,1.468,0,1,1,-1.468,0A1.468,1.468,0,1,1,1.468,0" fill="rgb(156, 23, 158)" opacity="0.7290730039024169"/><path transform="translate(413.2416944612877,445.1105802893554)" d="M1.561,0A1.561,1.561,0,1,1,-1.561,0A1.561,1.561,0,1,1,1.561,0" fill="rgb(156, 23, 158)" opacity="0.1"/><path transform="translate(369.2314698483907,-11.696070489331072)" d="M1.414,0A1.414,1.414,0,1,1,-1.414,0A1.414,1.414,0,1,1,1.414,0" fill="rgb(156, 23, 158)" opacity="0.1"/><path transform="translate(345.64177552376896,175.10383245657775)" d="M1.414,0A1.414,1.414,0,1,1,-1.414,0A1.414,1.414,0,1,1,1.414,0" fill="rgb(156, 23, 158)" opacity="1"/><path transform="translate(248.06693010328704,334.9988297946363)" d="M1.414,0A1.414,1.414,0,1,1,-1.414,0A1.414,1.414,0,1,1,1.414,0" fill="rgb(156, 23, 158)" opacity="0.7290730039024169"/><path transform="translate(508.7166889742674,400.5273681011184)" d="M1.414,0A1.414,1.414,0,1,1,-1.414,0A1.414,1.414,0,1,1,1.414,0" fill="rgb(156, 23, 158)" opacity="0.1"/><path transform="translate(325.407772796018,442.7546343146831)" d="M1.414,0A1.414,1.414,0,1,1,-1.414,0A1.414,1.414,0,1,1,1.414,0" fill="rgb(156, 23, 158)" opacity="0.1"/><path transform="translate(447.1523829100576,252.48727211442346)" d="M3.544,0A3.544,3.544,0,1,1,-3.544,0A3.544,3.544,0,1,1,3.544,0" fill="rgb(156, 23, 158)" opacity="1"/><path transform="translate(363.7968052085402,297.9085461354204)" d="M1.819,0A1.819,1.819,0,1,1,-1.819,0A1.819,1.819,0,1,1,1.819,0" fill="rgb(156, 23, 158)" opacity="1"/><path transform="translate(228.766484648159,401.87109583503565)" d="M2.002,0A2.002,2.002,0,1,1,-2.002,0A2.002,2.002,0,1,1,2.002,0" fill="rgb(156, 23, 158)" opacity="0.7290730039024169"/><path transform="translate(255.07291186464855,157.21293277152128)" d="M1.499,0A1.499,1.499,0,1,1,-1.499,0A1.499,1.499,0,1,1,1.499,0" fill="rgb(156, 23, 158)" opacity="0.7290730039024169"/><path transform="translate(559.069172587784,284.9711469560737)" d="M1.414,0A1.414,1.414,0,1,1,-1.414,0A1.414,1.414,0,1,1,1.414,0" fill="rgb(156, 23, 158)" opacity="0.1"/><path transform="translate(461.51661728309045,318.3181746654261)" d="M1.421,0A1.421,1.421,0,1,1,-1.421,0A1.421,1.421,0,1,1,1.421,0" fill="rgb(156, 23, 158)" opacity="0.7290730039024169"/><path transform="translate(554.0423237921832,238.55469227823352)" d="M1.414,0A1.414,1.414,0,1,1,-1.414,0A1.414,1.414,0,1,1,1.414,0" fill="rgb(156, 23, 158)" opacity="0.1"/><path transform="translate(467.4202614707688,300.1047846964363)" d="M1.506,0A1.506,1.506,0,1,1,-1.506,0A1.506,1.506,0,1,1,1.506,0" fill="rgb(156, 23, 158)" opacity="0.7290730039024169"/><path transform="translate(308.6597395102115,322.95779505470733)" d="M1.414,0A1.414,1.414,0,1,1,-1.414,0A1.414,1.414,0,1,1,1.414,0" fill="rgb(156, 23, 158)" opacity="0.1"/><path transform="translate(372.3316190054944,427.0378824730864)" d="M1.416,0A1.416,1.416,0,1,1,-1.416,0A1.416,1.416,0,1,1,1.416,0" fill="rgb(156, 23, 158)" opacity="0.1"/><path transform="translate(287.4818721281808,57.80025057561038)" d="M1.414,0A1.414,1.414,0,1,1,-1.414,0A1.414,1.414,0,1,1,1.414,0" fill="rgb(156, 23, 158)" opacity="0.7290730039024169"/><path transform="translate(287.87075156642777,176.8245341544379)" d="M1.414,0A1.414,1.414,0,1,1,-1.414,0A1.414,1.414,0,1,1,1.414,0" fill="rgb(156, 23, 158)" opacity="1"/><path transform="translate(368.3924731048519,362.8758163103795)" d="M1.881,0A1.881,1.881,0,1,1,-1.881,0A1.881,1.881,0,1,1,1.881,0" fill="rgb(156, 23, 158)" opacity="0.7290730039024169"/><path transform="translate(262.11070468635216,273.77349842845837)" d="M1.425,0A1.425,1.425,0,1,1,-1.425,0A1.425,1.425,0,1,1,1.425,0" fill="rgb(156, 23, 158)" opacity="0.7290730039024169"/><path transform="translate(238.27022066359368,438.2268180957272)" d="M1.414,0A1.414,1.414,0,1,1,-1.414,0A1.414,1.414,0,1,1,1.414,0" fill="rgb(156, 23, 158)" opacity="0.1"/><path transform="translate(312.2872443789238,138.0185782433838)" d="M1.414,0A1.414,1.414,0,1,1,-1.414,0A1.414,1.414,0,1,1,1.414,0" fill="rgb(156, 23, 158)" opacity="1"/><path transform="translate(262.5138630392429,180.556530781193)" d="M1.414,0A1.414,1.414,0,1,1,-1.414,0A1.414,1.414,0,1,1,1.414,0" fill="rgb(156, 23, 158)" opacity="0.7290730039024169"/><path transform="translate(200.88144259977932,441.6523510401123)" d="M1.414,0A1.414,1.414,0,1,1,-1.414,0A1.414,1.414,0,1,1,1.414,0" fill="rgb(156, 23, 158)" opacity="0.1"/><path transform="translate(163.4951253638831,406.2384133820739)" d="M1.414,0A1.414,1.414,0,1,1,-1.414,0A1.414,1.414,0,1,1,1.414,0" fill="rgb(156, 23, 158)" opacity="0.1"/><path transform="translate(262.65816587338566,395.9387127626744)" d="M1.648,0A1.648,1.648,0,1,1,-1.648,0A1.648,1.648,0,1,1,1.648,0" fill="rgb(156, 23, 158)" opacity="0.7290730039024169"/><path transform="translate(364.7491531612477,226.49728653498997)" d="M1.473,0A1.473,1.473,0,1,1,-1.473,0A1.473,1.473,0,1,1,1.473,0" fill="rgb(156, 23, 158)" opacity="1"/><path transform="translate(337.21524647158975,443.00027501661305)" d="M1.414,0A1.414,1.414,0,1,1,-1.414,0A1.414,1.414,0,1,1,1.414,0" fill="rgb(156, 23, 158)" opacity="0.1"/><path transform="translate(320.1922472264892,203.4540886726881)" d="M12.728,0A12.728,12.728,0,1,1,-12.728,0A12.728,12.728,0,1,1,12.728,0" fill="rgb(237, 121, 83)" opacity="1"/><path transform="translate(282.6890334519159,197.228439885327)" d="M1.414,0A1.414,1.414,0,1,1,-1.414,0A1.414,1.414,0,1,1,1.414,0" fill="rgb(156, 23, 158)" opacity="1"/><path transform="translate(464.1971410337149,213.52454221437523)" d="M1.709,0A1.709,1.709,0,1,1,-1.709,0A1.709,1.709,0,1,1,1.709,0" fill="rgb(156, 23, 158)" opacity="1"/><path transform="translate(249.54070994574207,224.36380580222172)" d="M2.412,0A2.412,2.412,0,1,1,-2.412,0A2.412,2.412,0,1,1,2.412,0" fill="rgb(156, 23, 158)" opacity="1"/></g></g><path class="foreground" aria-hidden="true" d="" display="none"/></g></g></g></svg>